Normalized EMG Linear Envelopes
nRows=32
nColumns=17

endheader
time	        VM	        VL	        RF	       GRA	        TA	   ADDLONG	   SEMIMEM	      BFLH	        GM	        GL	       TFL	   GLUTMAX	   GLUTMED	      PIRI	    OBTINT	        QF	
2.215	  0.075090	  0.107323	  0.364733	  0.264603	  0.688705	  0.109163	  0.015460	  0.007358	  0.039355	  0.057429	  0.247207	  0.058548	  0.127686	  0.327024	  0.141708	  0.043730	
2.2155	  0.075212	  0.107569	  0.366389	  0.261192	  0.687163	  0.108467	  0.015435	  0.007021	  0.039287	  0.057425	  0.244344	  0.058721	  0.128029	  0.329458	  0.142552	  0.044155	
2.216	  0.075343	  0.107820	  0.368046	  0.257786	  0.685582	  0.107767	  0.015435	  0.006700	  0.039217	  0.057413	  0.241474	  0.058897	  0.128368	  0.331888	  0.143419	  0.044584	
2.2165	  0.075482	  0.108075	  0.369702	  0.254388	  0.683961	  0.107064	  0.015463	  0.006396	  0.039148	  0.057395	  0.238597	  0.059078	  0.128704	  0.334313	  0.144306	  0.045015	
2.217	  0.075629	  0.108335	  0.371357	  0.250997	  0.682298	  0.106357	  0.015518	  0.006110	  0.039077	  0.057369	  0.235715	  0.059262	  0.129036	  0.336734	  0.145217	  0.045450	
2.2175	  0.075785	  0.108599	  0.373007	  0.247615	  0.680593	  0.105646	  0.015601	  0.005842	  0.039005	  0.057336	  0.232828	  0.059449	  0.129366	  0.339152	  0.146149	  0.045889	
2.218	  0.075951	  0.108867	  0.374654	  0.244243	  0.678843	  0.104932	  0.015713	  0.005591	  0.038933	  0.057296	  0.229938	  0.059640	  0.129693	  0.341566	  0.147104	  0.046330	
2.2185	  0.076126	  0.109140	  0.376294	  0.240880	  0.677050	  0.104213	  0.015854	  0.005360	  0.038861	  0.057249	  0.227046	  0.059833	  0.130018	  0.343976	  0.148083	  0.046775	
2.219	  0.076311	  0.109417	  0.377926	  0.237529	  0.675212	  0.103490	  0.016025	  0.005148	  0.038788	  0.057194	  0.224152	  0.060030	  0.130341	  0.346384	  0.149084	  0.047222	
2.2195	  0.076507	  0.109698	  0.379550	  0.234189	  0.673329	  0.102762	  0.016227	  0.004956	  0.038714	  0.057133	  0.221259	  0.060229	  0.130663	  0.348789	  0.150108	  0.047673	
2.22	  0.076713	  0.109983	  0.381163	  0.230863	  0.671401	  0.102029	  0.016460	  0.004785	  0.038640	  0.057065	  0.218365	  0.060430	  0.130985	  0.351191	  0.151156	  0.048128	
2.2205	  0.076930	  0.110271	  0.382764	  0.227551	  0.669427	  0.101291	  0.016724	  0.004634	  0.038566	  0.056989	  0.215473	  0.060634	  0.131306	  0.353592	  0.152227	  0.048585	
2.221	  0.077158	  0.110563	  0.384351	  0.224255	  0.667408	  0.100549	  0.017021	  0.004505	  0.038491	  0.056907	  0.212584	  0.060840	  0.131629	  0.355991	  0.153321	  0.049046	
2.2215	  0.077399	  0.110858	  0.385922	  0.220975	  0.665343	  0.099801	  0.017351	  0.004399	  0.038417	  0.056819	  0.209698	  0.061048	  0.131953	  0.358389	  0.154439	  0.049511	
2.222	  0.077651	  0.111157	  0.387477	  0.217713	  0.663232	  0.099047	  0.017715	  0.004315	  0.038342	  0.056724	  0.206815	  0.061258	  0.132278	  0.360786	  0.155580	  0.049979	
2.2225	  0.077916	  0.111458	  0.389013	  0.214471	  0.661076	  0.098288	  0.018114	  0.004254	  0.038267	  0.056622	  0.203938	  0.061470	  0.132607	  0.363183	  0.156744	  0.050450	
2.223	  0.078194	  0.111761	  0.390529	  0.211248	  0.658875	  0.097524	  0.018547	  0.004218	  0.038192	  0.056515	  0.201066	  0.061683	  0.132938	  0.365579	  0.157932	  0.050925	
2.2235	  0.078485	  0.112067	  0.392023	  0.208048	  0.656630	  0.096755	  0.019016	  0.004206	  0.038117	  0.056401	  0.198201	  0.061898	  0.133274	  0.367974	  0.159143	  0.051403	
2.224	  0.078790	  0.112375	  0.393492	  0.204869	  0.654342	  0.095981	  0.019522	  0.004219	  0.038042	  0.056281	  0.195344	  0.062114	  0.133615	  0.370369	  0.160378	  0.051885	
2.2245	  0.079108	  0.112684	  0.394936	  0.201714	  0.652013	  0.095202	  0.020066	  0.004258	  0.037968	  0.056155	  0.192496	  0.062332	  0.133962	  0.372763	  0.161636	  0.052371	
2.225	  0.079441	  0.112995	  0.396351	  0.198584	  0.649642	  0.094418	  0.020647	  0.004324	  0.037894	  0.056024	  0.189656	  0.062551	  0.134315	  0.375156	  0.162916	  0.052860	
2.2255	  0.079788	  0.113307	  0.397736	  0.195479	  0.647231	  0.093629	  0.021267	  0.004416	  0.037821	  0.055887	  0.186827	  0.062772	  0.134676	  0.377548	  0.164220	  0.053353	
2.226	  0.080151	  0.113619	  0.399089	  0.192401	  0.644781	  0.092836	  0.021927	  0.004537	  0.037748	  0.055745	  0.184010	  0.062995	  0.135045	  0.379938	  0.165547	  0.053850	
2.2265	  0.080528	  0.113932	  0.400408	  0.189349	  0.642293	  0.092038	  0.022626	  0.004686	  0.037676	  0.055598	  0.181204	  0.063218	  0.135423	  0.382326	  0.166897	  0.054351	
2.227	  0.080921	  0.114245	  0.401691	  0.186325	  0.639769	  0.091236	  0.023367	  0.004863	  0.037605	  0.055445	  0.178411	  0.063443	  0.135811	  0.384712	  0.168270	  0.054856	
2.2275	  0.081331	  0.114557	  0.402936	  0.183331	  0.637209	  0.090429	  0.024149	  0.005071	  0.037535	  0.055287	  0.175631	  0.063670	  0.136210	  0.387095	  0.169667	  0.055364	
2.228	  0.081757	  0.114869	  0.404141	  0.180365	  0.634615	  0.089619	  0.024973	  0.005308	  0.037466	  0.055125	  0.172866	  0.063897	  0.136619	  0.389474	  0.171086	  0.055878	
2.2285	  0.082199	  0.115179	  0.405305	  0.177430	  0.631988	  0.088805	  0.025841	  0.005577	  0.037399	  0.054958	  0.170117	  0.064126	  0.137040	  0.391850	  0.172529	  0.056395	
2.229	  0.082659	  0.115487	  0.406426	  0.174526	  0.629330	  0.087987	  0.026752	  0.005877	  0.037333	  0.054786	  0.167384	  0.064356	  0.137474	  0.394222	  0.173995	  0.056917	
2.2295	  0.083137	  0.115793	  0.407502	  0.171654	  0.626642	  0.087167	  0.027708	  0.006209	  0.037269	  0.054609	  0.164667	  0.064588	  0.137920	  0.396589	  0.175485	  0.057444	
2.23	  0.083631	  0.116097	  0.408532	  0.168815	  0.623924	  0.086344	  0.028709	  0.006574	  0.037207	  0.054428	  0.161968	  0.064820	  0.138380	  0.398951	  0.176999	  0.057976	
2.2305	  0.084144	  0.116397	  0.409513	  0.166010	  0.621179	  0.085518	  0.029756	  0.006973	  0.037148	  0.054243	  0.159287	  0.065054	  0.138854	  0.401308	  0.178536	  0.058512	
